<?xml version="1.0" standalone="no"?>
<!DOCTYPE svg PUBLIC "-//W3C//DTD SVG 20010904//EN"
 "http://www.w3.org/TR/2001/REC-SVG-20010904/DTD/svg10.dtd">
<svg version="1.0" xmlns="http://www.w3.org/2000/svg"
 width="1000.000000pt" height="1000.000000pt" viewBox="0 0 1000.000000 1000.000000"
 preserveAspectRatio="xMidYMid meet">

<rect width="100%" height="100%" fill="white" rx="20" ry="20"/>

<g transform="translate(0.000000,1000.000000) scale(0.100000,-0.100000)"
fill="#000000" stroke="none">
<path d="M270 4990 l0 -4720 4720 0 4720 0 0 4720 0 4720 -4720 0 -4720 0 0
-4720z m9430 0 l0 -4710 -4710 0 -4710 0 0 4710 0 4710 4710 0 4710 0 0 -4710z"/>
<path d="M2870 7570 c-575 -33 -1071 -252 -1319 -581 -163 -215 -248 -431
-270 -678 -49 -577 266 -1038 876 -1280 206 -81 370 -129 905 -262 620 -155
764 -200 952 -297 274 -141 409 -348 409 -627 0 -348 -232 -622 -646 -760
-280 -94 -688 -111 -1021 -44 -282 57 -567 199 -732 363 -150 150 -255 376
-300 644 -9 54 -18 98 -19 100 -4 5 -610 -50 -616 -57 -11 -10 9 -203 32 -315
70 -349 269 -693 521 -904 348 -291 772 -432 1381 -461 594 -28 1072 90 1444
356 301 214 521 561 578 913 19 123 19 342 0 456 -34 190 -120 391 -230 534
-65 84 -221 228 -317 293 -283 189 -575 290 -1408 483 -585 135 -890 252
-1022 390 -53 56 -105 148 -131 229 -28 91 -30 252 -3 339 42 140 128 265 249
362 205 163 508 234 946 221 261 -7 437 -41 603 -116 293 -131 480 -398 538
-767 l11 -72 37 4 c37 4 565 44 583 44 22 0 3 186 -37 343 -94 374 -322 680
-650 873 -343 202 -839 303 -1344 274z"/>
<path d="M5890 4990 l0 -2500 310 0 310 0 0 718 0 718 210 202 c116 111 214
202 219 202 5 0 276 -414 602 -920 l594 -919 378 -1 c207 0 377 2 377 5 0 3
-150 230 -333 503 -184 273 -525 783 -760 1133 l-426 636 437 423 c240 233
551 536 691 672 l253 248 -396 0 -397 0 -487 -492 c-267 -271 -593 -601 -724
-733 l-238 -240 0 1423 0 1422 -310 0 -310 0 0 -2500z"/>
</g>
</svg>